<?xml version="1.0" encoding="utf-8"?>
<svg xmlns="http://www.w3.org/2000/svg" xmlns:xlink="http://www.w3.org/1999/xlink" xml:space="preserve" width="1076.25" height="1255.625" viewBox="0 0 1076.25 1255.625"><rect width="996.428125" height="996.428125" fill="#ffffff" x="44.84375" y="44.84375"/><g transform="scale(44.84375)" fill="hsl(205, 61%, 43%)"><path d="M22.7,0H1.3C0.6,0,0,0.6,0,1.3v25.3C0,27.4,0.6,28,1.3,28h21.3c0.7,0,1.3-0.6,1.3-1.3V1.3C24,0.6,23.4,0,22.7,0 z M23,22c0,0.6-0.5,1-1,1H2c-0.6,0-1-0.5-1-1V2c0-0.6,0.5-1,1-1h20c0.6,0,1,0.5,1,1V22z"/></g><g fill="#000000">
<g transform="translate(296.625,107.625) scale(3.605)"><rect width="6" height="6"/></g>
<g transform="translate(359.625,107.625) scale(3.605)"><rect width="6" height="6"/></g>
<g transform="translate(443.625,107.625) scale(3.605)"><rect width="6" height="6"/></g>
<g transform="translate(464.625,107.625) scale(3.605)"><rect width="6" height="6"/></g>
<g transform="translate(527.625,107.625) scale(3.605)"><rect width="6" height="6"/></g>
<g transform="translate(569.625,107.625) scale(3.605)"><rect width="6" height="6"/></g>
<g transform="translate(590.625,107.625) scale(3.605)"><rect width="6" height="6"/></g>
<g transform="translate(695.625,107.625) scale(3.605)"><rect width="6" height="6"/></g>
<g transform="translate(716.625,107.625) scale(3.605)"><rect width="6" height="6"/></g>
<g transform="translate(758.625,107.625) scale(3.605)"><rect width="6" height="6"/></g>
<g transform="translate(779.625,107.625) scale(3.605)"><rect width="6" height="6"/></g>
<g transform="translate(317.625,128.625) scale(3.605)"><rect width="6" height="6"/></g>
<g transform="translate(359.625,128.625) scale(3.605)"><rect width="6" height="6"/></g>
<g transform="translate(380.625,128.625) scale(3.605)"><rect width="6" height="6"/></g>
<g transform="translate(527.625,128.625) scale(3.605)"><rect width="6" height="6"/></g>
<g transform="translate(548.625,128.625) scale(3.605)"><rect width="6" height="6"/></g>
<g transform="translate(569.625,128.625) scale(3.605)"><rect width="6" height="6"/></g>
<g transform="translate(611.625,128.625) scale(3.605)"><rect width="6" height="6"/></g>
<g transform="translate(653.625,128.625) scale(3.605)"><rect width="6" height="6"/></g>
<g transform="translate(674.625,128.625) scale(3.605)"><rect width="6" height="6"/></g>
<g transform="translate(716.625,128.625) scale(3.605)"><rect width="6" height="6"/></g>
<g transform="translate(275.625,149.625) scale(3.605)"><rect width="6" height="6"/></g>
<g transform="translate(296.625,149.625) scale(3.605)"><rect width="6" height="6"/></g>
<g transform="translate(317.625,149.625) scale(3.605)"><rect width="6" height="6"/></g>
<g transform="translate(338.625,149.625) scale(3.605)"><rect width="6" height="6"/></g>
<g transform="translate(359.625,149.625) scale(3.605)"><rect width="6" height="6"/></g>
<g transform="translate(422.625,149.625) scale(3.605)"><rect width="6" height="6"/></g>
<g transform="translate(506.625,149.625) scale(3.605)"><rect width="6" height="6"/></g>
<g transform="translate(527.625,149.625) scale(3.605)"><rect width="6" height="6"/></g>
<g transform="translate(548.625,149.625) scale(3.605)"><rect width="6" height="6"/></g>
<g transform="translate(569.625,149.625) scale(3.605)"><rect width="6" height="6"/></g>
<g transform="translate(590.625,149.625) scale(3.605)"><rect width="6" height="6"/></g>
<g transform="translate(611.625,149.625) scale(3.605)"><rect width="6" height="6"/></g>
<g transform="translate(653.625,149.625) scale(3.605)"><rect width="6" height="6"/></g>
<g transform="translate(674.625,149.625) scale(3.605)"><rect width="6" height="6"/></g>
<g transform="translate(737.625,149.625) scale(3.605)"><rect width="6" height="6"/></g>
<g transform="translate(275.625,170.625) scale(3.605)"><rect width="6" height="6"/></g>
<g transform="translate(296.625,170.625) scale(3.605)"><rect width="6" height="6"/></g>
<g transform="translate(380.625,170.625) scale(3.605)"><rect width="6" height="6"/></g>
<g transform="translate(401.625,170.625) scale(3.605)"><rect width="6" height="6"/></g>
<g transform="translate(443.625,170.625) scale(3.605)"><rect width="6" height="6"/></g>
<g transform="translate(464.625,170.625) scale(3.605)"><rect width="6" height="6"/></g>
<g transform="translate(485.625,170.625) scale(3.605)"><rect width="6" height="6"/></g>
<g transform="translate(527.625,170.625) scale(3.605)"><rect width="6" height="6"/></g>
<g transform="translate(632.625,170.625) scale(3.605)"><rect width="6" height="6"/></g>
<g transform="translate(653.625,170.625) scale(3.605)"><rect width="6" height="6"/></g>
<g transform="translate(674.625,170.625) scale(3.605)"><rect width="6" height="6"/></g>
<g transform="translate(716.625,170.625) scale(3.605)"><rect width="6" height="6"/></g>
<g transform="translate(275.625,191.625) scale(3.605)"><rect width="6" height="6"/></g>
<g transform="translate(296.625,191.625) scale(3.605)"><rect width="6" height="6"/></g>
<g transform="translate(317.625,191.625) scale(3.605)"><rect width="6" height="6"/></g>
<g transform="translate(338.625,191.625) scale(3.605)"><rect width="6" height="6"/></g>
<g transform="translate(380.625,191.625) scale(3.605)"><rect width="6" height="6"/></g>
<g transform="translate(401.625,191.625) scale(3.605)"><rect width="6" height="6"/></g>
<g transform="translate(443.625,191.625) scale(3.605)"><rect width="6" height="6"/></g>
<g transform="translate(464.625,191.625) scale(3.605)"><rect width="6" height="6"/></g>
<g transform="translate(527.625,191.625) scale(3.605)"><rect width="6" height="6"/></g>
<g transform="translate(548.625,191.625) scale(3.605)"><rect width="6" height="6"/></g>
<g transform="translate(569.625,191.625) scale(3.605)"><rect width="6" height="6"/></g>
<g transform="translate(590.625,191.625) scale(3.605)"><rect width="6" height="6"/></g>
<g transform="translate(653.625,191.625) scale(3.605)"><rect width="6" height="6"/></g>
<g transform="translate(674.625,191.625) scale(3.605)"><rect width="6" height="6"/></g>
<g transform="translate(695.625,191.625) scale(3.605)"><rect width="6" height="6"/></g>
<g transform="translate(779.625,191.625) scale(3.605)"><rect width="6" height="6"/></g>
<g transform="translate(275.625,212.625) scale(3.605)"><rect width="6" height="6"/></g>
<g transform="translate(296.625,212.625) scale(3.605)"><rect width="6" height="6"/></g>
<g transform="translate(317.625,212.625) scale(3.605)"><rect width="6" height="6"/></g>
<g transform="translate(380.625,212.625) scale(3.605)"><rect width="6" height="6"/></g>
<g transform="translate(401.625,212.625) scale(3.605)"><rect width="6" height="6"/></g>
<g transform="translate(443.625,212.625) scale(3.605)"><rect width="6" height="6"/></g>
<g transform="translate(464.625,212.625) scale(3.605)"><rect width="6" height="6"/></g>
<g transform="translate(548.625,212.625) scale(3.605)"><rect width="6" height="6"/></g>
<g transform="translate(569.625,212.625) scale(3.605)"><rect width="6" height="6"/></g>
<g transform="translate(632.625,212.625) scale(3.605)"><rect width="6" height="6"/></g>
<g transform="translate(653.625,212.625) scale(3.605)"><rect width="6" height="6"/></g>
<g transform="translate(674.625,212.625) scale(3.605)"><rect width="6" height="6"/></g>
<g transform="translate(695.625,212.625) scale(3.605)"><rect width="6" height="6"/></g>
<g transform="translate(779.625,212.625) scale(3.605)"><rect width="6" height="6"/></g>
<g transform="translate(275.625,233.625) scale(3.605)"><rect width="6" height="6"/></g>
<g transform="translate(317.625,233.625) scale(3.605)"><rect width="6" height="6"/></g>
<g transform="translate(359.625,233.625) scale(3.605)"><rect width="6" height="6"/></g>
<g transform="translate(401.625,233.625) scale(3.605)"><rect width="6" height="6"/></g>
<g transform="translate(443.625,233.625) scale(3.605)"><rect width="6" height="6"/></g>
<g transform="translate(485.625,233.625) scale(3.605)"><rect width="6" height="6"/></g>
<g transform="translate(527.625,233.625) scale(3.605)"><rect width="6" height="6"/></g>
<g transform="translate(569.625,233.625) scale(3.605)"><rect width="6" height="6"/></g>
<g transform="translate(611.625,233.625) scale(3.605)"><rect width="6" height="6"/></g>
<g transform="translate(653.625,233.625) scale(3.605)"><rect width="6" height="6"/></g>
<g transform="translate(695.625,233.625) scale(3.605)"><rect width="6" height="6"/></g>
<g transform="translate(737.625,233.625) scale(3.605)"><rect width="6" height="6"/></g>
<g transform="translate(779.625,233.625) scale(3.605)"><rect width="6" height="6"/></g>
<g transform="translate(275.625,254.625) scale(3.605)"><rect width="6" height="6"/></g>
<g transform="translate(317.625,254.625) scale(3.605)"><rect width="6" height="6"/></g>
<g transform="translate(338.625,254.625) scale(3.605)"><rect width="6" height="6"/></g>
<g transform="translate(359.625,254.625) scale(3.605)"><rect width="6" height="6"/></g>
<g transform="translate(380.625,254.625) scale(3.605)"><rect width="6" height="6"/></g>
<g transform="translate(401.625,254.625) scale(3.605)"><rect width="6" height="6"/></g>
<g transform="translate(548.625,254.625) scale(3.605)"><rect width="6" height="6"/></g>
<g transform="translate(569.625,254.625) scale(3.605)"><rect width="6" height="6"/></g>
<g transform="translate(653.625,254.625) scale(3.605)"><rect width="6" height="6"/></g>
<g transform="translate(674.625,254.625) scale(3.605)"><rect width="6" height="6"/></g>
<g transform="translate(737.625,254.625) scale(3.605)"><rect width="6" height="6"/></g>
<g transform="translate(107.625,275.625) scale(3.605)"><rect width="6" height="6"/></g>
<g transform="translate(149.625,275.625) scale(3.605)"><rect width="6" height="6"/></g>
<g transform="translate(170.625,275.625) scale(3.605)"><rect width="6" height="6"/></g>
<g transform="translate(191.625,275.625) scale(3.605)"><rect width="6" height="6"/></g>
<g transform="translate(212.625,275.625) scale(3.605)"><rect width="6" height="6"/></g>
<g transform="translate(233.625,275.625) scale(3.605)"><rect width="6" height="6"/></g>
<g transform="translate(359.625,275.625) scale(3.605)"><rect width="6" height="6"/></g>
<g transform="translate(464.625,275.625) scale(3.605)"><rect width="6" height="6"/></g>
<g transform="translate(611.625,275.625) scale(3.605)"><rect width="6" height="6"/></g>
<g transform="translate(632.625,275.625) scale(3.605)"><rect width="6" height="6"/></g>
<g transform="translate(653.625,275.625) scale(3.605)"><rect width="6" height="6"/></g>
<g transform="translate(674.625,275.625) scale(3.605)"><rect width="6" height="6"/></g>
<g transform="translate(716.625,275.625) scale(3.605)"><rect width="6" height="6"/></g>
<g transform="translate(821.625,275.625) scale(3.605)"><rect width="6" height="6"/></g>
<g transform="translate(842.625,275.625) scale(3.605)"><rect width="6" height="6"/></g>
<g transform="translate(863.625,275.625) scale(3.605)"><rect width="6" height="6"/></g>
<g transform="translate(884.625,275.625) scale(3.605)"><rect width="6" height="6"/></g>
<g transform="translate(905.625,275.625) scale(3.605)"><rect width="6" height="6"/></g>
<g transform="translate(128.625,296.625) scale(3.605)"><rect width="6" height="6"/></g>
<g transform="translate(149.625,296.625) scale(3.605)"><rect width="6" height="6"/></g>
<g transform="translate(191.625,296.625) scale(3.605)"><rect width="6" height="6"/></g>
<g transform="translate(212.625,296.625) scale(3.605)"><rect width="6" height="6"/></g>
<g transform="translate(275.625,296.625) scale(3.605)"><rect width="6" height="6"/></g>
<g transform="translate(317.625,296.625) scale(3.605)"><rect width="6" height="6"/></g>
<g transform="translate(359.625,296.625) scale(3.605)"><rect width="6" height="6"/></g>
<g transform="translate(380.625,296.625) scale(3.605)"><rect width="6" height="6"/></g>
<g transform="translate(401.625,296.625) scale(3.605)"><rect width="6" height="6"/></g>
<g transform="translate(422.625,296.625) scale(3.605)"><rect width="6" height="6"/></g>
<g transform="translate(464.625,296.625) scale(3.605)"><rect width="6" height="6"/></g>
<g transform="translate(485.625,296.625) scale(3.605)"><rect width="6" height="6"/></g>
<g transform="translate(506.625,296.625) scale(3.605)"><rect width="6" height="6"/></g>
<g transform="translate(590.625,296.625) scale(3.605)"><rect width="6" height="6"/></g>
<g transform="translate(632.625,296.625) scale(3.605)"><rect width="6" height="6"/></g>
<g transform="translate(695.625,296.625) scale(3.605)"><rect width="6" height="6"/></g>
<g transform="translate(737.625,296.625) scale(3.605)"><rect width="6" height="6"/></g>
<g transform="translate(758.625,296.625) scale(3.605)"><rect width="6" height="6"/></g>
<g transform="translate(779.625,296.625) scale(3.605)"><rect width="6" height="6"/></g>
<g transform="translate(842.625,296.625) scale(3.605)"><rect width="6" height="6"/></g>
<g transform="translate(863.625,296.625) scale(3.605)"><rect width="6" height="6"/></g>
<g transform="translate(905.625,296.625) scale(3.605)"><rect width="6" height="6"/></g>
<g transform="translate(926.625,296.625) scale(3.605)"><rect width="6" height="6"/></g>
<g transform="translate(107.625,317.625) scale(3.605)"><rect width="6" height="6"/></g>
<g transform="translate(170.625,317.625) scale(3.605)"><rect width="6" height="6"/></g>
<g transform="translate(212.625,317.625) scale(3.605)"><rect width="6" height="6"/></g>
<g transform="translate(233.625,317.625) scale(3.605)"><rect width="6" height="6"/></g>
<g transform="translate(275.625,317.625) scale(3.605)"><rect width="6" height="6"/></g>
<g transform="translate(317.625,317.625) scale(3.605)"><rect width="6" height="6"/></g>
<g transform="translate(359.625,317.625) scale(3.605)"><rect width="6" height="6"/></g>
<g transform="translate(380.625,317.625) scale(3.605)"><rect width="6" height="6"/></g>
<g transform="translate(401.625,317.625) scale(3.605)"><rect width="6" height="6"/></g>
<g transform="translate(443.625,317.625) scale(3.605)"><rect width="6" height="6"/></g>
<g transform="translate(464.625,317.625) scale(3.605)"><rect width="6" height="6"/></g>
<g transform="translate(527.625,317.625) scale(3.605)"><rect width="6" height="6"/></g>
<g transform="translate(548.625,317.625) scale(3.605)"><rect width="6" height="6"/></g>
<g transform="translate(611.625,317.625) scale(3.605)"><rect width="6" height="6"/></g>
<g transform="translate(653.625,317.625) scale(3.605)"><rect width="6" height="6"/></g>
<g transform="translate(674.625,317.625) scale(3.605)"><rect width="6" height="6"/></g>
<g transform="translate(716.625,317.625) scale(3.605)"><rect width="6" height="6"/></g>
<g transform="translate(779.625,317.625) scale(3.605)"><rect width="6" height="6"/></g>
<g transform="translate(842.625,317.625) scale(3.605)"><rect width="6" height="6"/></g>
<g transform="translate(863.625,317.625) scale(3.605)"><rect width="6" height="6"/></g>
<g transform="translate(107.625,338.625) scale(3.605)"><rect width="6" height="6"/></g>
<g transform="translate(149.625,338.625) scale(3.605)"><rect width="6" height="6"/></g>
<g transform="translate(170.625,338.625) scale(3.605)"><rect width="6" height="6"/></g>
<g transform="translate(359.625,338.625) scale(3.605)"><rect width="6" height="6"/></g>
<g transform="translate(380.625,338.625) scale(3.605)"><rect width="6" height="6"/></g>
<g transform="translate(443.625,338.625) scale(3.605)"><rect width="6" height="6"/></g>
<g transform="translate(527.625,338.625) scale(3.605)"><rect width="6" height="6"/></g>
<g transform="translate(548.625,338.625) scale(3.605)"><rect width="6" height="6"/></g>
<g transform="translate(569.625,338.625) scale(3.605)"><rect width="6" height="6"/></g>
<g transform="translate(695.625,338.625) scale(3.605)"><rect width="6" height="6"/></g>
<g transform="translate(737.625,338.625) scale(3.605)"><rect width="6" height="6"/></g>
<g transform="translate(758.625,338.625) scale(3.605)"><rect width="6" height="6"/></g>
<g transform="translate(779.625,338.625) scale(3.605)"><rect width="6" height="6"/></g>
<g transform="translate(800.625,338.625) scale(3.605)"><rect width="6" height="6"/></g>
<g transform="translate(821.625,338.625) scale(3.605)"><rect width="6" height="6"/></g>
<g transform="translate(842.625,338.625) scale(3.605)"><rect width="6" height="6"/></g>
<g transform="translate(863.625,338.625) scale(3.605)"><rect width="6" height="6"/></g>
<g transform="translate(884.625,338.625) scale(3.605)"><rect width="6" height="6"/></g>
<g transform="translate(947.625,338.625) scale(3.605)"><rect width="6" height="6"/></g>
<g transform="translate(107.625,359.625) scale(3.605)"><rect width="6" height="6"/></g>
<g transform="translate(128.625,359.625) scale(3.605)"><rect width="6" height="6"/></g>
<g transform="translate(170.625,359.625) scale(3.605)"><rect width="6" height="6"/></g>
<g transform="translate(191.625,359.625) scale(3.605)"><rect width="6" height="6"/></g>
<g transform="translate(233.625,359.625) scale(3.605)"><rect width="6" height="6"/></g>
<g transform="translate(254.625,359.625) scale(3.605)"><rect width="6" height="6"/></g>
<g transform="translate(296.625,359.625) scale(3.605)"><rect width="6" height="6"/></g>
<g transform="translate(359.625,359.625) scale(3.605)"><rect width="6" height="6"/></g>
<g transform="translate(380.625,359.625) scale(3.605)"><rect width="6" height="6"/></g>
<g transform="translate(401.625,359.625) scale(3.605)"><rect width="6" height="6"/></g>
<g transform="translate(506.625,359.625) scale(3.605)"><rect width="6" height="6"/></g>
<g transform="translate(527.625,359.625) scale(3.605)"><rect width="6" height="6"/></g>
<g transform="translate(569.625,359.625) scale(3.605)"><rect width="6" height="6"/></g>
<g transform="translate(590.625,359.625) scale(3.605)"><rect width="6" height="6"/></g>
<g transform="translate(611.625,359.625) scale(3.605)"><rect width="6" height="6"/></g>
<g transform="translate(653.625,359.625) scale(3.605)"><rect width="6" height="6"/></g>
<g transform="translate(758.625,359.625) scale(3.605)"><rect width="6" height="6"/></g>
<g transform="translate(884.625,359.625) scale(3.605)"><rect width="6" height="6"/></g>
<g transform="translate(905.625,359.625) scale(3.605)"><rect width="6" height="6"/></g>
<g transform="translate(926.625,359.625) scale(3.605)"><rect width="6" height="6"/></g>
<g transform="translate(947.625,359.625) scale(3.605)"><rect width="6" height="6"/></g>
<g transform="translate(107.625,380.625) scale(3.605)"><rect width="6" height="6"/></g>
<g transform="translate(149.625,380.625) scale(3.605)"><rect width="6" height="6"/></g>
<g transform="translate(191.625,380.625) scale(3.605)"><rect width="6" height="6"/></g>
<g transform="translate(275.625,380.625) scale(3.605)"><rect width="6" height="6"/></g>
<g transform="translate(296.625,380.625) scale(3.605)"><rect width="6" height="6"/></g>
<g transform="translate(338.625,380.625) scale(3.605)"><rect width="6" height="6"/></g>
<g transform="translate(359.625,380.625) scale(3.605)"><rect width="6" height="6"/></g>
<g transform="translate(422.625,380.625) scale(3.605)"><rect width="6" height="6"/></g>
<g transform="translate(485.625,380.625) scale(3.605)"><rect width="6" height="6"/></g>
<g transform="translate(506.625,380.625) scale(3.605)"><rect width="6" height="6"/></g>
<g transform="translate(548.625,380.625) scale(3.605)"><rect width="6" height="6"/></g>
<g transform="translate(569.625,380.625) scale(3.605)"><rect width="6" height="6"/></g>
<g transform="translate(590.625,380.625) scale(3.605)"><rect width="6" height="6"/></g>
<g transform="translate(653.625,380.625) scale(3.605)"><rect width="6" height="6"/></g>
<g transform="translate(695.625,380.625) scale(3.605)"><rect width="6" height="6"/></g>
<g transform="translate(737.625,380.625) scale(3.605)"><rect width="6" height="6"/></g>
<g transform="translate(758.625,380.625) scale(3.605)"><rect width="6" height="6"/></g>
<g transform="translate(779.625,380.625) scale(3.605)"><rect width="6" height="6"/></g>
<g transform="translate(800.625,380.625) scale(3.605)"><rect width="6" height="6"/></g>
<g transform="translate(821.625,380.625) scale(3.605)"><rect width="6" height="6"/></g>
<g transform="translate(863.625,380.625) scale(3.605)"><rect width="6" height="6"/></g>
<g transform="translate(884.625,380.625) scale(3.605)"><rect width="6" height="6"/></g>
<g transform="translate(905.625,380.625) scale(3.605)"><rect width="6" height="6"/></g>
<g transform="translate(107.625,401.625) scale(3.605)"><rect width="6" height="6"/></g>
<g transform="translate(128.625,401.625) scale(3.605)"><rect width="6" height="6"/></g>
<g transform="translate(170.625,401.625) scale(3.605)"><rect width="6" height="6"/></g>
<g transform="translate(212.625,401.625) scale(3.605)"><rect width="6" height="6"/></g>
<g transform="translate(233.625,401.625) scale(3.605)"><rect width="6" height="6"/></g>
<g transform="translate(254.625,401.625) scale(3.605)"><rect width="6" height="6"/></g>
<g transform="translate(317.625,401.625) scale(3.605)"><rect width="6" height="6"/></g>
<g transform="translate(380.625,401.625) scale(3.605)"><rect width="6" height="6"/></g>
<g transform="translate(443.625,401.625) scale(3.605)"><rect width="6" height="6"/></g>
<g transform="translate(527.625,401.625) scale(3.605)"><rect width="6" height="6"/></g>
<g transform="translate(548.625,401.625) scale(3.605)"><rect width="6" height="6"/></g>
<g transform="translate(611.625,401.625) scale(3.605)"><rect width="6" height="6"/></g>
<g transform="translate(632.625,401.625) scale(3.605)"><rect width="6" height="6"/></g>
<g transform="translate(674.625,401.625) scale(3.605)"><rect width="6" height="6"/></g>
<g transform="translate(695.625,401.625) scale(3.605)"><rect width="6" height="6"/></g>
<g transform="translate(737.625,401.625) scale(3.605)"><rect width="6" height="6"/></g>
<g transform="translate(779.625,401.625) scale(3.605)"><rect width="6" height="6"/></g>
<g transform="translate(800.625,401.625) scale(3.605)"><rect width="6" height="6"/></g>
<g transform="translate(863.625,401.625) scale(3.605)"><rect width="6" height="6"/></g>
<g transform="translate(884.625,401.625) scale(3.605)"><rect width="6" height="6"/></g>
<g transform="translate(170.625,422.625) scale(3.605)"><rect width="6" height="6"/></g>
<g transform="translate(254.625,422.625) scale(3.605)"><rect width="6" height="6"/></g>
<g transform="translate(338.625,422.625) scale(3.605)"><rect width="6" height="6"/></g>
<g transform="translate(359.625,422.625) scale(3.605)"><rect width="6" height="6"/></g>
<g transform="translate(380.625,422.625) scale(3.605)"><rect width="6" height="6"/></g>
<g transform="translate(401.625,422.625) scale(3.605)"><rect width="6" height="6"/></g>
<g transform="translate(443.625,422.625) scale(3.605)"><rect width="6" height="6"/></g>
<g transform="translate(485.625,422.625) scale(3.605)"><rect width="6" height="6"/></g>
<g transform="translate(548.625,422.625) scale(3.605)"><rect width="6" height="6"/></g>
<g transform="translate(569.625,422.625) scale(3.605)"><rect width="6" height="6"/></g>
<g transform="translate(590.625,422.625) scale(3.605)"><rect width="6" height="6"/></g>
<g transform="translate(611.625,422.625) scale(3.605)"><rect width="6" height="6"/></g>
<g transform="translate(653.625,422.625) scale(3.605)"><rect width="6" height="6"/></g>
<g transform="translate(674.625,422.625) scale(3.605)"><rect width="6" height="6"/></g>
<g transform="translate(779.625,422.625) scale(3.605)"><rect width="6" height="6"/></g>
<g transform="translate(821.625,422.625) scale(3.605)"><rect width="6" height="6"/></g>
<g transform="translate(842.625,422.625) scale(3.605)"><rect width="6" height="6"/></g>
<g transform="translate(863.625,422.625) scale(3.605)"><rect width="6" height="6"/></g>
<g transform="translate(884.625,422.625) scale(3.605)"><rect width="6" height="6"/></g>
<g transform="translate(107.625,443.625) scale(3.605)"><rect width="6" height="6"/></g>
<g transform="translate(128.625,443.625) scale(3.605)"><rect width="6" height="6"/></g>
<g transform="translate(212.625,443.625) scale(3.605)"><rect width="6" height="6"/></g>
<g transform="translate(233.625,443.625) scale(3.605)"><rect width="6" height="6"/></g>
<g transform="translate(296.625,443.625) scale(3.605)"><rect width="6" height="6"/></g>
<g transform="translate(338.625,443.625) scale(3.605)"><rect width="6" height="6"/></g>
<g transform="translate(380.625,443.625) scale(3.605)"><rect width="6" height="6"/></g>
<g transform="translate(443.625,443.625) scale(3.605)"><rect width="6" height="6"/></g>
<g transform="translate(464.625,443.625) scale(3.605)"><rect width="6" height="6"/></g>
<g transform="translate(506.625,443.625) scale(3.605)"><rect width="6" height="6"/></g>
<g transform="translate(548.625,443.625) scale(3.605)"><rect width="6" height="6"/></g>
<g transform="translate(569.625,443.625) scale(3.605)"><rect width="6" height="6"/></g>
<g transform="translate(653.625,443.625) scale(3.605)"><rect width="6" height="6"/></g>
<g transform="translate(695.625,443.625) scale(3.605)"><rect width="6" height="6"/></g>
<g transform="translate(716.625,443.625) scale(3.605)"><rect width="6" height="6"/></g>
<g transform="translate(758.625,443.625) scale(3.605)"><rect width="6" height="6"/></g>
<g transform="translate(779.625,443.625) scale(3.605)"><rect width="6" height="6"/></g>
<g transform="translate(800.625,443.625) scale(3.605)"><rect width="6" height="6"/></g>
<g transform="translate(842.625,443.625) scale(3.605)"><rect width="6" height="6"/></g>
<g transform="translate(884.625,443.625) scale(3.605)"><rect width="6" height="6"/></g>
<g transform="translate(905.625,443.625) scale(3.605)"><rect width="6" height="6"/></g>
<g transform="translate(149.625,464.625) scale(3.605)"><rect width="6" height="6"/></g>
<g transform="translate(170.625,464.625) scale(3.605)"><rect width="6" height="6"/></g>
<g transform="translate(191.625,464.625) scale(3.605)"><rect width="6" height="6"/></g>
<g transform="translate(212.625,464.625) scale(3.605)"><rect width="6" height="6"/></g>
<g transform="translate(296.625,464.625) scale(3.605)"><rect width="6" height="6"/></g>
<g transform="translate(338.625,464.625) scale(3.605)"><rect width="6" height="6"/></g>
<g transform="translate(401.625,464.625) scale(3.605)"><rect width="6" height="6"/></g>
<g transform="translate(443.625,464.625) scale(3.605)"><rect width="6" height="6"/></g>
<g transform="translate(485.625,464.625) scale(3.605)"><rect width="6" height="6"/></g>
<g transform="translate(506.625,464.625) scale(3.605)"><rect width="6" height="6"/></g>
<g transform="translate(527.625,464.625) scale(3.605)"><rect width="6" height="6"/></g>
<g transform="translate(590.625,464.625) scale(3.605)"><rect width="6" height="6"/></g>
<g transform="translate(611.625,464.625) scale(3.605)"><rect width="6" height="6"/></g>
<g transform="translate(653.625,464.625) scale(3.605)"><rect width="6" height="6"/></g>
<g transform="translate(737.625,464.625) scale(3.605)"><rect width="6" height="6"/></g>
<g transform="translate(779.625,464.625) scale(3.605)"><rect width="6" height="6"/></g>
<g transform="translate(821.625,464.625) scale(3.605)"><rect width="6" height="6"/></g>
<g transform="translate(842.625,464.625) scale(3.605)"><rect width="6" height="6"/></g>
<g transform="translate(863.625,464.625) scale(3.605)"><rect width="6" height="6"/></g>
<g transform="translate(884.625,464.625) scale(3.605)"><rect width="6" height="6"/></g>
<g transform="translate(926.625,464.625) scale(3.605)"><rect width="6" height="6"/></g>
<g transform="translate(947.625,464.625) scale(3.605)"><rect width="6" height="6"/></g>
<g transform="translate(149.625,485.625) scale(3.605)"><rect width="6" height="6"/></g>
<g transform="translate(191.625,485.625) scale(3.605)"><rect width="6" height="6"/></g>
<g transform="translate(212.625,485.625) scale(3.605)"><rect width="6" height="6"/></g>
<g transform="translate(233.625,485.625) scale(3.605)"><rect width="6" height="6"/></g>
<g transform="translate(254.625,485.625) scale(3.605)"><rect width="6" height="6"/></g>
<g transform="translate(296.625,485.625) scale(3.605)"><rect width="6" height="6"/></g>
<g transform="translate(317.625,485.625) scale(3.605)"><rect width="6" height="6"/></g>
<g transform="translate(338.625,485.625) scale(3.605)"><rect width="6" height="6"/></g>
<g transform="translate(422.625,485.625) scale(3.605)"><rect width="6" height="6"/></g>
<g transform="translate(443.625,485.625) scale(3.605)"><rect width="6" height="6"/></g>
<g transform="translate(485.625,485.625) scale(3.605)"><rect width="6" height="6"/></g>
<g transform="translate(527.625,485.625) scale(3.605)"><rect width="6" height="6"/></g>
<g transform="translate(569.625,485.625) scale(3.605)"><rect width="6" height="6"/></g>
<g transform="translate(611.625,485.625) scale(3.605)"><rect width="6" height="6"/></g>
<g transform="translate(632.625,485.625) scale(3.605)"><rect width="6" height="6"/></g>
<g transform="translate(653.625,485.625) scale(3.605)"><rect width="6" height="6"/></g>
<g transform="translate(674.625,485.625) scale(3.605)"><rect width="6" height="6"/></g>
<g transform="translate(695.625,485.625) scale(3.605)"><rect width="6" height="6"/></g>
<g transform="translate(716.625,485.625) scale(3.605)"><rect width="6" height="6"/></g>
<g transform="translate(779.625,485.625) scale(3.605)"><rect width="6" height="6"/></g>
<g transform="translate(821.625,485.625) scale(3.605)"><rect width="6" height="6"/></g>
<g transform="translate(863.625,485.625) scale(3.605)"><rect width="6" height="6"/></g>
<g transform="translate(884.625,485.625) scale(3.605)"><rect width="6" height="6"/></g>
<g transform="translate(107.625,506.625) scale(3.605)"><rect width="6" height="6"/></g>
<g transform="translate(170.625,506.625) scale(3.605)"><rect width="6" height="6"/></g>
<g transform="translate(191.625,506.625) scale(3.605)"><rect width="6" height="6"/></g>
<g transform="translate(212.625,506.625) scale(3.605)"><rect width="6" height="6"/></g>
<g transform="translate(296.625,506.625) scale(3.605)"><rect width="6" height="6"/></g>
<g transform="translate(317.625,506.625) scale(3.605)"><rect width="6" height="6"/></g>
<g transform="translate(338.625,506.625) scale(3.605)"><rect width="6" height="6"/></g>
<g transform="translate(380.625,506.625) scale(3.605)"><rect width="6" height="6"/></g>
<g transform="translate(401.625,506.625) scale(3.605)"><rect width="6" height="6"/></g>
<g transform="translate(422.625,506.625) scale(3.605)"><rect width="6" height="6"/></g>
<g transform="translate(443.625,506.625) scale(3.605)"><rect width="6" height="6"/></g>
<g transform="translate(506.625,506.625) scale(3.605)"><rect width="6" height="6"/></g>
<g transform="translate(548.625,506.625) scale(3.605)"><rect width="6" height="6"/></g>
<g transform="translate(569.625,506.625) scale(3.605)"><rect width="6" height="6"/></g>
<g transform="translate(653.625,506.625) scale(3.605)"><rect width="6" height="6"/></g>
<g transform="translate(674.625,506.625) scale(3.605)"><rect width="6" height="6"/></g>
<g transform="translate(821.625,506.625) scale(3.605)"><rect width="6" height="6"/></g>
<g transform="translate(863.625,506.625) scale(3.605)"><rect width="6" height="6"/></g>
<g transform="translate(884.625,506.625) scale(3.605)"><rect width="6" height="6"/></g>
<g transform="translate(926.625,506.625) scale(3.605)"><rect width="6" height="6"/></g>
<g transform="translate(947.625,506.625) scale(3.605)"><rect width="6" height="6"/></g>
<g transform="translate(107.625,527.625) scale(3.605)"><rect width="6" height="6"/></g>
<g transform="translate(170.625,527.625) scale(3.605)"><rect width="6" height="6"/></g>
<g transform="translate(212.625,527.625) scale(3.605)"><rect width="6" height="6"/></g>
<g transform="translate(233.625,527.625) scale(3.605)"><rect width="6" height="6"/></g>
<g transform="translate(254.625,527.625) scale(3.605)"><rect width="6" height="6"/></g>
<g transform="translate(296.625,527.625) scale(3.605)"><rect width="6" height="6"/></g>
<g transform="translate(422.625,527.625) scale(3.605)"><rect width="6" height="6"/></g>
<g transform="translate(485.625,527.625) scale(3.605)"><rect width="6" height="6"/></g>
<g transform="translate(506.625,527.625) scale(3.605)"><rect width="6" height="6"/></g>
<g transform="translate(527.625,527.625) scale(3.605)"><rect width="6" height="6"/></g>
<g transform="translate(569.625,527.625) scale(3.605)"><rect width="6" height="6"/></g>
<g transform="translate(611.625,527.625) scale(3.605)"><rect width="6" height="6"/></g>
<g transform="translate(632.625,527.625) scale(3.605)"><rect width="6" height="6"/></g>
<g transform="translate(653.625,527.625) scale(3.605)"><rect width="6" height="6"/></g>
<g transform="translate(695.625,527.625) scale(3.605)"><rect width="6" height="6"/></g>
<g transform="translate(716.625,527.625) scale(3.605)"><rect width="6" height="6"/></g>
<g transform="translate(737.625,527.625) scale(3.605)"><rect width="6" height="6"/></g>
<g transform="translate(758.625,527.625) scale(3.605)"><rect width="6" height="6"/></g>
<g transform="translate(779.625,527.625) scale(3.605)"><rect width="6" height="6"/></g>
<g transform="translate(842.625,527.625) scale(3.605)"><rect width="6" height="6"/></g>
<g transform="translate(863.625,527.625) scale(3.605)"><rect width="6" height="6"/></g>
<g transform="translate(905.625,527.625) scale(3.605)"><rect width="6" height="6"/></g>
<g transform="translate(926.625,527.625) scale(3.605)"><rect width="6" height="6"/></g>
<g transform="translate(170.625,548.625) scale(3.605)"><rect width="6" height="6"/></g>
<g transform="translate(191.625,548.625) scale(3.605)"><rect width="6" height="6"/></g>
<g transform="translate(275.625,548.625) scale(3.605)"><rect width="6" height="6"/></g>
<g transform="translate(296.625,548.625) scale(3.605)"><rect width="6" height="6"/></g>
<g transform="translate(359.625,548.625) scale(3.605)"><rect width="6" height="6"/></g>
<g transform="translate(380.625,548.625) scale(3.605)"><rect width="6" height="6"/></g>
<g transform="translate(401.625,548.625) scale(3.605)"><rect width="6" height="6"/></g>
<g transform="translate(443.625,548.625) scale(3.605)"><rect width="6" height="6"/></g>
<g transform="translate(485.625,548.625) scale(3.605)"><rect width="6" height="6"/></g>
<g transform="translate(506.625,548.625) scale(3.605)"><rect width="6" height="6"/></g>
<g transform="translate(527.625,548.625) scale(3.605)"><rect width="6" height="6"/></g>
<g transform="translate(569.625,548.625) scale(3.605)"><rect width="6" height="6"/></g>
<g transform="translate(590.625,548.625) scale(3.605)"><rect width="6" height="6"/></g>
<g transform="translate(632.625,548.625) scale(3.605)"><rect width="6" height="6"/></g>
<g transform="translate(674.625,548.625) scale(3.605)"><rect width="6" height="6"/></g>
<g transform="translate(695.625,548.625) scale(3.605)"><rect width="6" height="6"/></g>
<g transform="translate(716.625,548.625) scale(3.605)"><rect width="6" height="6"/></g>
<g transform="translate(737.625,548.625) scale(3.605)"><rect width="6" height="6"/></g>
<g transform="translate(758.625,548.625) scale(3.605)"><rect width="6" height="6"/></g>
<g transform="translate(800.625,548.625) scale(3.605)"><rect width="6" height="6"/></g>
<g transform="translate(821.625,548.625) scale(3.605)"><rect width="6" height="6"/></g>
<g transform="translate(842.625,548.625) scale(3.605)"><rect width="6" height="6"/></g>
<g transform="translate(863.625,548.625) scale(3.605)"><rect width="6" height="6"/></g>
<g transform="translate(884.625,548.625) scale(3.605)"><rect width="6" height="6"/></g>
<g transform="translate(905.625,548.625) scale(3.605)"><rect width="6" height="6"/></g>
<g transform="translate(926.625,548.625) scale(3.605)"><rect width="6" height="6"/></g>
<g transform="translate(947.625,548.625) scale(3.605)"><rect width="6" height="6"/></g>
<g transform="translate(107.625,569.625) scale(3.605)"><rect width="6" height="6"/></g>
<g transform="translate(128.625,569.625) scale(3.605)"><rect width="6" height="6"/></g>
<g transform="translate(170.625,569.625) scale(3.605)"><rect width="6" height="6"/></g>
<g transform="translate(212.625,569.625) scale(3.605)"><rect width="6" height="6"/></g>
<g transform="translate(233.625,569.625) scale(3.605)"><rect width="6" height="6"/></g>
<g transform="translate(254.625,569.625) scale(3.605)"><rect width="6" height="6"/></g>
<g transform="translate(275.625,569.625) scale(3.605)"><rect width="6" height="6"/></g>
<g transform="translate(317.625,569.625) scale(3.605)"><rect width="6" height="6"/></g>
<g transform="translate(359.625,569.625) scale(3.605)"><rect width="6" height="6"/></g>
<g transform="translate(401.625,569.625) scale(3.605)"><rect width="6" height="6"/></g>
<g transform="translate(464.625,569.625) scale(3.605)"><rect width="6" height="6"/></g>
<g transform="translate(569.625,569.625) scale(3.605)"><rect width="6" height="6"/></g>
<g transform="translate(611.625,569.625) scale(3.605)"><rect width="6" height="6"/></g>
<g transform="translate(632.625,569.625) scale(3.605)"><rect width="6" height="6"/></g>
<g transform="translate(653.625,569.625) scale(3.605)"><rect width="6" height="6"/></g>
<g transform="translate(674.625,569.625) scale(3.605)"><rect width="6" height="6"/></g>
<g transform="translate(716.625,569.625) scale(3.605)"><rect width="6" height="6"/></g>
<g transform="translate(779.625,569.625) scale(3.605)"><rect width="6" height="6"/></g>
<g transform="translate(800.625,569.625) scale(3.605)"><rect width="6" height="6"/></g>
<g transform="translate(107.625,590.625) scale(3.605)"><rect width="6" height="6"/></g>
<g transform="translate(149.625,590.625) scale(3.605)"><rect width="6" height="6"/></g>
<g transform="translate(170.625,590.625) scale(3.605)"><rect width="6" height="6"/></g>
<g transform="translate(275.625,590.625) scale(3.605)"><rect width="6" height="6"/></g>
<g transform="translate(296.625,590.625) scale(3.605)"><rect width="6" height="6"/></g>
<g transform="translate(317.625,590.625) scale(3.605)"><rect width="6" height="6"/></g>
<g transform="translate(338.625,590.625) scale(3.605)"><rect width="6" height="6"/></g>
<g transform="translate(401.625,590.625) scale(3.605)"><rect width="6" height="6"/></g>
<g transform="translate(443.625,590.625) scale(3.605)"><rect width="6" height="6"/></g>
<g transform="translate(485.625,590.625) scale(3.605)"><rect width="6" height="6"/></g>
<g transform="translate(506.625,590.625) scale(3.605)"><rect width="6" height="6"/></g>
<g transform="translate(548.625,590.625) scale(3.605)"><rect width="6" height="6"/></g>
<g transform="translate(653.625,590.625) scale(3.605)"><rect width="6" height="6"/></g>
<g transform="translate(674.625,590.625) scale(3.605)"><rect width="6" height="6"/></g>
<g transform="translate(758.625,590.625) scale(3.605)"><rect width="6" height="6"/></g>
<g transform="translate(779.625,590.625) scale(3.605)"><rect width="6" height="6"/></g>
<g transform="translate(884.625,590.625) scale(3.605)"><rect width="6" height="6"/></g>
<g transform="translate(128.625,611.625) scale(3.605)"><rect width="6" height="6"/></g>
<g transform="translate(170.625,611.625) scale(3.605)"><rect width="6" height="6"/></g>
<g transform="translate(191.625,611.625) scale(3.605)"><rect width="6" height="6"/></g>
<g transform="translate(212.625,611.625) scale(3.605)"><rect width="6" height="6"/></g>
<g transform="translate(233.625,611.625) scale(3.605)"><rect width="6" height="6"/></g>
<g transform="translate(254.625,611.625) scale(3.605)"><rect width="6" height="6"/></g>
<g transform="translate(275.625,611.625) scale(3.605)"><rect width="6" height="6"/></g>
<g transform="translate(443.625,611.625) scale(3.605)"><rect width="6" height="6"/></g>
<g transform="translate(464.625,611.625) scale(3.605)"><rect width="6" height="6"/></g>
<g transform="translate(569.625,611.625) scale(3.605)"><rect width="6" height="6"/></g>
<g transform="translate(611.625,611.625) scale(3.605)"><rect width="6" height="6"/></g>
<g transform="translate(632.625,611.625) scale(3.605)"><rect width="6" height="6"/></g>
<g transform="translate(653.625,611.625) scale(3.605)"><rect width="6" height="6"/></g>
<g transform="translate(674.625,611.625) scale(3.605)"><rect width="6" height="6"/></g>
<g transform="translate(716.625,611.625) scale(3.605)"><rect width="6" height="6"/></g>
<g transform="translate(758.625,611.625) scale(3.605)"><rect width="6" height="6"/></g>
<g transform="translate(842.625,611.625) scale(3.605)"><rect width="6" height="6"/></g>
<g transform="translate(884.625,611.625) scale(3.605)"><rect width="6" height="6"/></g>
<g transform="translate(926.625,611.625) scale(3.605)"><rect width="6" height="6"/></g>
<g transform="translate(947.625,611.625) scale(3.605)"><rect width="6" height="6"/></g>
<g transform="translate(128.625,632.625) scale(3.605)"><rect width="6" height="6"/></g>
<g transform="translate(170.625,632.625) scale(3.605)"><rect width="6" height="6"/></g>
<g transform="translate(191.625,632.625) scale(3.605)"><rect width="6" height="6"/></g>
<g transform="translate(212.625,632.625) scale(3.605)"><rect width="6" height="6"/></g>
<g transform="translate(275.625,632.625) scale(3.605)"><rect width="6" height="6"/></g>
<g transform="translate(338.625,632.625) scale(3.605)"><rect width="6" height="6"/></g>
<g transform="translate(422.625,632.625) scale(3.605)"><rect width="6" height="6"/></g>
<g transform="translate(443.625,632.625) scale(3.605)"><rect width="6" height="6"/></g>
<g transform="translate(464.625,632.625) scale(3.605)"><rect width="6" height="6"/></g>
<g transform="translate(485.625,632.625) scale(3.605)"><rect width="6" height="6"/></g>
<g transform="translate(506.625,632.625) scale(3.605)"><rect width="6" height="6"/></g>
<g transform="translate(527.625,632.625) scale(3.605)"><rect width="6" height="6"/></g>
<g transform="translate(548.625,632.625) scale(3.605)"><rect width="6" height="6"/></g>
<g transform="translate(590.625,632.625) scale(3.605)"><rect width="6" height="6"/></g>
<g transform="translate(737.625,632.625) scale(3.605)"><rect width="6" height="6"/></g>
<g transform="translate(758.625,632.625) scale(3.605)"><rect width="6" height="6"/></g>
<g transform="translate(821.625,632.625) scale(3.605)"><rect width="6" height="6"/></g>
<g transform="translate(863.625,632.625) scale(3.605)"><rect width="6" height="6"/></g>
<g transform="translate(884.625,632.625) scale(3.605)"><rect width="6" height="6"/></g>
<g transform="translate(926.625,632.625) scale(3.605)"><rect width="6" height="6"/></g>
<g transform="translate(947.625,632.625) scale(3.605)"><rect width="6" height="6"/></g>
<g transform="translate(149.625,653.625) scale(3.605)"><rect width="6" height="6"/></g>
<g transform="translate(191.625,653.625) scale(3.605)"><rect width="6" height="6"/></g>
<g transform="translate(233.625,653.625) scale(3.605)"><rect width="6" height="6"/></g>
<g transform="translate(275.625,653.625) scale(3.605)"><rect width="6" height="6"/></g>
<g transform="translate(338.625,653.625) scale(3.605)"><rect width="6" height="6"/></g>
<g transform="translate(359.625,653.625) scale(3.605)"><rect width="6" height="6"/></g>
<g transform="translate(422.625,653.625) scale(3.605)"><rect width="6" height="6"/></g>
<g transform="translate(443.625,653.625) scale(3.605)"><rect width="6" height="6"/></g>
<g transform="translate(464.625,653.625) scale(3.605)"><rect width="6" height="6"/></g>
<g transform="translate(527.625,653.625) scale(3.605)"><rect width="6" height="6"/></g>
<g transform="translate(569.625,653.625) scale(3.605)"><rect width="6" height="6"/></g>
<g transform="translate(632.625,653.625) scale(3.605)"><rect width="6" height="6"/></g>
<g transform="translate(674.625,653.625) scale(3.605)"><rect width="6" height="6"/></g>
<g transform="translate(695.625,653.625) scale(3.605)"><rect width="6" height="6"/></g>
<g transform="translate(737.625,653.625) scale(3.605)"><rect width="6" height="6"/></g>
<g transform="translate(779.625,653.625) scale(3.605)"><rect width="6" height="6"/></g>
<g transform="translate(800.625,653.625) scale(3.605)"><rect width="6" height="6"/></g>
<g transform="translate(842.625,653.625) scale(3.605)"><rect width="6" height="6"/></g>
<g transform="translate(863.625,653.625) scale(3.605)"><rect width="6" height="6"/></g>
<g transform="translate(170.625,674.625) scale(3.605)"><rect width="6" height="6"/></g>
<g transform="translate(191.625,674.625) scale(3.605)"><rect width="6" height="6"/></g>
<g transform="translate(254.625,674.625) scale(3.605)"><rect width="6" height="6"/></g>
<g transform="translate(275.625,674.625) scale(3.605)"><rect width="6" height="6"/></g>
<g transform="translate(296.625,674.625) scale(3.605)"><rect width="6" height="6"/></g>
<g transform="translate(359.625,674.625) scale(3.605)"><rect width="6" height="6"/></g>
<g transform="translate(380.625,674.625) scale(3.605)"><rect width="6" height="6"/></g>
<g transform="translate(422.625,674.625) scale(3.605)"><rect width="6" height="6"/></g>
<g transform="translate(443.625,674.625) scale(3.605)"><rect width="6" height="6"/></g>
<g transform="translate(485.625,674.625) scale(3.605)"><rect width="6" height="6"/></g>
<g transform="translate(506.625,674.625) scale(3.605)"><rect width="6" height="6"/></g>
<g transform="translate(527.625,674.625) scale(3.605)"><rect width="6" height="6"/></g>
<g transform="translate(548.625,674.625) scale(3.605)"><rect width="6" height="6"/></g>
<g transform="translate(590.625,674.625) scale(3.605)"><rect width="6" height="6"/></g>
<g transform="translate(653.625,674.625) scale(3.605)"><rect width="6" height="6"/></g>
<g transform="translate(758.625,674.625) scale(3.605)"><rect width="6" height="6"/></g>
<g transform="translate(779.625,674.625) scale(3.605)"><rect width="6" height="6"/></g>
<g transform="translate(821.625,674.625) scale(3.605)"><rect width="6" height="6"/></g>
<g transform="translate(863.625,674.625) scale(3.605)"><rect width="6" height="6"/></g>
<g transform="translate(884.625,674.625) scale(3.605)"><rect width="6" height="6"/></g>
<g transform="translate(107.625,695.625) scale(3.605)"><rect width="6" height="6"/></g>
<g transform="translate(191.625,695.625) scale(3.605)"><rect width="6" height="6"/></g>
<g transform="translate(233.625,695.625) scale(3.605)"><rect width="6" height="6"/></g>
<g transform="translate(254.625,695.625) scale(3.605)"><rect width="6" height="6"/></g>
<g transform="translate(338.625,695.625) scale(3.605)"><rect width="6" height="6"/></g>
<g transform="translate(443.625,695.625) scale(3.605)"><rect width="6" height="6"/></g>
<g transform="translate(464.625,695.625) scale(3.605)"><rect width="6" height="6"/></g>
<g transform="translate(485.625,695.625) scale(3.605)"><rect width="6" height="6"/></g>
<g transform="translate(506.625,695.625) scale(3.605)"><rect width="6" height="6"/></g>
<g transform="translate(548.625,695.625) scale(3.605)"><rect width="6" height="6"/></g>
<g transform="translate(569.625,695.625) scale(3.605)"><rect width="6" height="6"/></g>
<g transform="translate(632.625,695.625) scale(3.605)"><rect width="6" height="6"/></g>
<g transform="translate(653.625,695.625) scale(3.605)"><rect width="6" height="6"/></g>
<g transform="translate(674.625,695.625) scale(3.605)"><rect width="6" height="6"/></g>
<g transform="translate(758.625,695.625) scale(3.605)"><rect width="6" height="6"/></g>
<g transform="translate(800.625,695.625) scale(3.605)"><rect width="6" height="6"/></g>
<g transform="translate(884.625,695.625) scale(3.605)"><rect width="6" height="6"/></g>
<g transform="translate(905.625,695.625) scale(3.605)"><rect width="6" height="6"/></g>
<g transform="translate(926.625,695.625) scale(3.605)"><rect width="6" height="6"/></g>
<g transform="translate(947.625,695.625) scale(3.605)"><rect width="6" height="6"/></g>
<g transform="translate(107.625,716.625) scale(3.605)"><rect width="6" height="6"/></g>
<g transform="translate(149.625,716.625) scale(3.605)"><rect width="6" height="6"/></g>
<g transform="translate(212.625,716.625) scale(3.605)"><rect width="6" height="6"/></g>
<g transform="translate(254.625,716.625) scale(3.605)"><rect width="6" height="6"/></g>
<g transform="translate(296.625,716.625) scale(3.605)"><rect width="6" height="6"/></g>
<g transform="translate(380.625,716.625) scale(3.605)"><rect width="6" height="6"/></g>
<g transform="translate(464.625,716.625) scale(3.605)"><rect width="6" height="6"/></g>
<g transform="translate(506.625,716.625) scale(3.605)"><rect width="6" height="6"/></g>
<g transform="translate(527.625,716.625) scale(3.605)"><rect width="6" height="6"/></g>
<g transform="translate(590.625,716.625) scale(3.605)"><rect width="6" height="6"/></g>
<g transform="translate(695.625,716.625) scale(3.605)"><rect width="6" height="6"/></g>
<g transform="translate(737.625,716.625) scale(3.605)"><rect width="6" height="6"/></g>
<g transform="translate(758.625,716.625) scale(3.605)"><rect width="6" height="6"/></g>
<g transform="translate(821.625,716.625) scale(3.605)"><rect width="6" height="6"/></g>
<g transform="translate(842.625,716.625) scale(3.605)"><rect width="6" height="6"/></g>
<g transform="translate(863.625,716.625) scale(3.605)"><rect width="6" height="6"/></g>
<g transform="translate(947.625,716.625) scale(3.605)"><rect width="6" height="6"/></g>
<g transform="translate(107.625,737.625) scale(3.605)"><rect width="6" height="6"/></g>
<g transform="translate(170.625,737.625) scale(3.605)"><rect width="6" height="6"/></g>
<g transform="translate(233.625,737.625) scale(3.605)"><rect width="6" height="6"/></g>
<g transform="translate(254.625,737.625) scale(3.605)"><rect width="6" height="6"/></g>
<g transform="translate(317.625,737.625) scale(3.605)"><rect width="6" height="6"/></g>
<g transform="translate(338.625,737.625) scale(3.605)"><rect width="6" height="6"/></g>
<g transform="translate(380.625,737.625) scale(3.605)"><rect width="6" height="6"/></g>
<g transform="translate(485.625,737.625) scale(3.605)"><rect width="6" height="6"/></g>
<g transform="translate(653.625,737.625) scale(3.605)"><rect width="6" height="6"/></g>
<g transform="translate(674.625,737.625) scale(3.605)"><rect width="6" height="6"/></g>
<g transform="translate(716.625,737.625) scale(3.605)"><rect width="6" height="6"/></g>
<g transform="translate(779.625,737.625) scale(3.605)"><rect width="6" height="6"/></g>
<g transform="translate(800.625,737.625) scale(3.605)"><rect width="6" height="6"/></g>
<g transform="translate(821.625,737.625) scale(3.605)"><rect width="6" height="6"/></g>
<g transform="translate(842.625,737.625) scale(3.605)"><rect width="6" height="6"/></g>
<g transform="translate(884.625,737.625) scale(3.605)"><rect width="6" height="6"/></g>
<g transform="translate(905.625,737.625) scale(3.605)"><rect width="6" height="6"/></g>
<g transform="translate(926.625,737.625) scale(3.605)"><rect width="6" height="6"/></g>
<g transform="translate(107.625,758.625) scale(3.605)"><rect width="6" height="6"/></g>
<g transform="translate(191.625,758.625) scale(3.605)"><rect width="6" height="6"/></g>
<g transform="translate(212.625,758.625) scale(3.605)"><rect width="6" height="6"/></g>
<g transform="translate(254.625,758.625) scale(3.605)"><rect width="6" height="6"/></g>
<g transform="translate(275.625,758.625) scale(3.605)"><rect width="6" height="6"/></g>
<g transform="translate(296.625,758.625) scale(3.605)"><rect width="6" height="6"/></g>
<g transform="translate(317.625,758.625) scale(3.605)"><rect width="6" height="6"/></g>
<g transform="translate(422.625,758.625) scale(3.605)"><rect width="6" height="6"/></g>
<g transform="translate(485.625,758.625) scale(3.605)"><rect width="6" height="6"/></g>
<g transform="translate(527.625,758.625) scale(3.605)"><rect width="6" height="6"/></g>
<g transform="translate(548.625,758.625) scale(3.605)"><rect width="6" height="6"/></g>
<g transform="translate(590.625,758.625) scale(3.605)"><rect width="6" height="6"/></g>
<g transform="translate(653.625,758.625) scale(3.605)"><rect width="6" height="6"/></g>
<g transform="translate(695.625,758.625) scale(3.605)"><rect width="6" height="6"/></g>
<g transform="translate(758.625,758.625) scale(3.605)"><rect width="6" height="6"/></g>
<g transform="translate(800.625,758.625) scale(3.605)"><rect width="6" height="6"/></g>
<g transform="translate(821.625,758.625) scale(3.605)"><rect width="6" height="6"/></g>
<g transform="translate(842.625,758.625) scale(3.605)"><rect width="6" height="6"/></g>
<g transform="translate(926.625,758.625) scale(3.605)"><rect width="6" height="6"/></g>
<g transform="translate(107.625,779.625) scale(3.605)"><rect width="6" height="6"/></g>
<g transform="translate(149.625,779.625) scale(3.605)"><rect width="6" height="6"/></g>
<g transform="translate(170.625,779.625) scale(3.605)"><rect width="6" height="6"/></g>
<g transform="translate(191.625,779.625) scale(3.605)"><rect width="6" height="6"/></g>
<g transform="translate(233.625,779.625) scale(3.605)"><rect width="6" height="6"/></g>
<g transform="translate(275.625,779.625) scale(3.605)"><rect width="6" height="6"/></g>
<g transform="translate(359.625,779.625) scale(3.605)"><rect width="6" height="6"/></g>
<g transform="translate(401.625,779.625) scale(3.605)"><rect width="6" height="6"/></g>
<g transform="translate(422.625,779.625) scale(3.605)"><rect width="6" height="6"/></g>
<g transform="translate(443.625,779.625) scale(3.605)"><rect width="6" height="6"/></g>
<g transform="translate(464.625,779.625) scale(3.605)"><rect width="6" height="6"/></g>
<g transform="translate(506.625,779.625) scale(3.605)"><rect width="6" height="6"/></g>
<g transform="translate(548.625,779.625) scale(3.605)"><rect width="6" height="6"/></g>
<g transform="translate(569.625,779.625) scale(3.605)"><rect width="6" height="6"/></g>
<g transform="translate(590.625,779.625) scale(3.605)"><rect width="6" height="6"/></g>
<g transform="translate(611.625,779.625) scale(3.605)"><rect width="6" height="6"/></g>
<g transform="translate(653.625,779.625) scale(3.605)"><rect width="6" height="6"/></g>
<g transform="translate(674.625,779.625) scale(3.605)"><rect width="6" height="6"/></g>
<g transform="translate(695.625,779.625) scale(3.605)"><rect width="6" height="6"/></g>
<g transform="translate(716.625,779.625) scale(3.605)"><rect width="6" height="6"/></g>
<g transform="translate(737.625,779.625) scale(3.605)"><rect width="6" height="6"/></g>
<g transform="translate(779.625,779.625) scale(3.605)"><rect width="6" height="6"/></g>
<g transform="translate(800.625,779.625) scale(3.605)"><rect width="6" height="6"/></g>
<g transform="translate(821.625,779.625) scale(3.605)"><rect width="6" height="6"/></g>
<g transform="translate(842.625,779.625) scale(3.605)"><rect width="6" height="6"/></g>
<g transform="translate(863.625,779.625) scale(3.605)"><rect width="6" height="6"/></g>
<g transform="translate(905.625,779.625) scale(3.605)"><rect width="6" height="6"/></g>
<g transform="translate(275.625,800.625) scale(3.605)"><rect width="6" height="6"/></g>
<g transform="translate(296.625,800.625) scale(3.605)"><rect width="6" height="6"/></g>
<g transform="translate(317.625,800.625) scale(3.605)"><rect width="6" height="6"/></g>
<g transform="translate(359.625,800.625) scale(3.605)"><rect width="6" height="6"/></g>
<g transform="translate(443.625,800.625) scale(3.605)"><rect width="6" height="6"/></g>
<g transform="translate(464.625,800.625) scale(3.605)"><rect width="6" height="6"/></g>
<g transform="translate(485.625,800.625) scale(3.605)"><rect width="6" height="6"/></g>
<g transform="translate(506.625,800.625) scale(3.605)"><rect width="6" height="6"/></g>
<g transform="translate(527.625,800.625) scale(3.605)"><rect width="6" height="6"/></g>
<g transform="translate(548.625,800.625) scale(3.605)"><rect width="6" height="6"/></g>
<g transform="translate(569.625,800.625) scale(3.605)"><rect width="6" height="6"/></g>
<g transform="translate(590.625,800.625) scale(3.605)"><rect width="6" height="6"/></g>
<g transform="translate(653.625,800.625) scale(3.605)"><rect width="6" height="6"/></g>
<g transform="translate(716.625,800.625) scale(3.605)"><rect width="6" height="6"/></g>
<g transform="translate(758.625,800.625) scale(3.605)"><rect width="6" height="6"/></g>
<g transform="translate(779.625,800.625) scale(3.605)"><rect width="6" height="6"/></g>
<g transform="translate(863.625,800.625) scale(3.605)"><rect width="6" height="6"/></g>
<g transform="translate(905.625,800.625) scale(3.605)"><rect width="6" height="6"/></g>
<g transform="translate(947.625,800.625) scale(3.605)"><rect width="6" height="6"/></g>
<g transform="translate(296.625,821.625) scale(3.605)"><rect width="6" height="6"/></g>
<g transform="translate(317.625,821.625) scale(3.605)"><rect width="6" height="6"/></g>
<g transform="translate(338.625,821.625) scale(3.605)"><rect width="6" height="6"/></g>
<g transform="translate(401.625,821.625) scale(3.605)"><rect width="6" height="6"/></g>
<g transform="translate(422.625,821.625) scale(3.605)"><rect width="6" height="6"/></g>
<g transform="translate(443.625,821.625) scale(3.605)"><rect width="6" height="6"/></g>
<g transform="translate(464.625,821.625) scale(3.605)"><rect width="6" height="6"/></g>
<g transform="translate(548.625,821.625) scale(3.605)"><rect width="6" height="6"/></g>
<g transform="translate(611.625,821.625) scale(3.605)"><rect width="6" height="6"/></g>
<g transform="translate(632.625,821.625) scale(3.605)"><rect width="6" height="6"/></g>
<g transform="translate(653.625,821.625) scale(3.605)"><rect width="6" height="6"/></g>
<g transform="translate(674.625,821.625) scale(3.605)"><rect width="6" height="6"/></g>
<g transform="translate(695.625,821.625) scale(3.605)"><rect width="6" height="6"/></g>
<g transform="translate(716.625,821.625) scale(3.605)"><rect width="6" height="6"/></g>
<g transform="translate(758.625,821.625) scale(3.605)"><rect width="6" height="6"/></g>
<g transform="translate(779.625,821.625) scale(3.605)"><rect width="6" height="6"/></g>
<g transform="translate(821.625,821.625) scale(3.605)"><rect width="6" height="6"/></g>
<g transform="translate(863.625,821.625) scale(3.605)"><rect width="6" height="6"/></g>
<g transform="translate(275.625,842.625) scale(3.605)"><rect width="6" height="6"/></g>
<g transform="translate(338.625,842.625) scale(3.605)"><rect width="6" height="6"/></g>
<g transform="translate(380.625,842.625) scale(3.605)"><rect width="6" height="6"/></g>
<g transform="translate(401.625,842.625) scale(3.605)"><rect width="6" height="6"/></g>
<g transform="translate(422.625,842.625) scale(3.605)"><rect width="6" height="6"/></g>
<g transform="translate(464.625,842.625) scale(3.605)"><rect width="6" height="6"/></g>
<g transform="translate(485.625,842.625) scale(3.605)"><rect width="6" height="6"/></g>
<g transform="translate(527.625,842.625) scale(3.605)"><rect width="6" height="6"/></g>
<g transform="translate(548.625,842.625) scale(3.605)"><rect width="6" height="6"/></g>
<g transform="translate(590.625,842.625) scale(3.605)"><rect width="6" height="6"/></g>
<g transform="translate(611.625,842.625) scale(3.605)"><rect width="6" height="6"/></g>
<g transform="translate(674.625,842.625) scale(3.605)"><rect width="6" height="6"/></g>
<g transform="translate(758.625,842.625) scale(3.605)"><rect width="6" height="6"/></g>
<g transform="translate(779.625,842.625) scale(3.605)"><rect width="6" height="6"/></g>
<g transform="translate(863.625,842.625) scale(3.605)"><rect width="6" height="6"/></g>
<g transform="translate(947.625,842.625) scale(3.605)"><rect width="6" height="6"/></g>
<g transform="translate(275.625,863.625) scale(3.605)"><rect width="6" height="6"/></g>
<g transform="translate(359.625,863.625) scale(3.605)"><rect width="6" height="6"/></g>
<g transform="translate(380.625,863.625) scale(3.605)"><rect width="6" height="6"/></g>
<g transform="translate(422.625,863.625) scale(3.605)"><rect width="6" height="6"/></g>
<g transform="translate(569.625,863.625) scale(3.605)"><rect width="6" height="6"/></g>
<g transform="translate(590.625,863.625) scale(3.605)"><rect width="6" height="6"/></g>
<g transform="translate(632.625,863.625) scale(3.605)"><rect width="6" height="6"/></g>
<g transform="translate(653.625,863.625) scale(3.605)"><rect width="6" height="6"/></g>
<g transform="translate(695.625,863.625) scale(3.605)"><rect width="6" height="6"/></g>
<g transform="translate(716.625,863.625) scale(3.605)"><rect width="6" height="6"/></g>
<g transform="translate(779.625,863.625) scale(3.605)"><rect width="6" height="6"/></g>
<g transform="translate(800.625,863.625) scale(3.605)"><rect width="6" height="6"/></g>
<g transform="translate(821.625,863.625) scale(3.605)"><rect width="6" height="6"/></g>
<g transform="translate(842.625,863.625) scale(3.605)"><rect width="6" height="6"/></g>
<g transform="translate(863.625,863.625) scale(3.605)"><rect width="6" height="6"/></g>
<g transform="translate(884.625,863.625) scale(3.605)"><rect width="6" height="6"/></g>
<g transform="translate(905.625,863.625) scale(3.605)"><rect width="6" height="6"/></g>
<g transform="translate(947.625,863.625) scale(3.605)"><rect width="6" height="6"/></g>
<g transform="translate(275.625,884.625) scale(3.605)"><rect width="6" height="6"/></g>
<g transform="translate(296.625,884.625) scale(3.605)"><rect width="6" height="6"/></g>
<g transform="translate(317.625,884.625) scale(3.605)"><rect width="6" height="6"/></g>
<g transform="translate(359.625,884.625) scale(3.605)"><rect width="6" height="6"/></g>
<g transform="translate(380.625,884.625) scale(3.605)"><rect width="6" height="6"/></g>
<g transform="translate(401.625,884.625) scale(3.605)"><rect width="6" height="6"/></g>
<g transform="translate(422.625,884.625) scale(3.605)"><rect width="6" height="6"/></g>
<g transform="translate(443.625,884.625) scale(3.605)"><rect width="6" height="6"/></g>
<g transform="translate(485.625,884.625) scale(3.605)"><rect width="6" height="6"/></g>
<g transform="translate(506.625,884.625) scale(3.605)"><rect width="6" height="6"/></g>
<g transform="translate(527.625,884.625) scale(3.605)"><rect width="6" height="6"/></g>
<g transform="translate(548.625,884.625) scale(3.605)"><rect width="6" height="6"/></g>
<g transform="translate(590.625,884.625) scale(3.605)"><rect width="6" height="6"/></g>
<g transform="translate(611.625,884.625) scale(3.605)"><rect width="6" height="6"/></g>
<g transform="translate(632.625,884.625) scale(3.605)"><rect width="6" height="6"/></g>
<g transform="translate(695.625,884.625) scale(3.605)"><rect width="6" height="6"/></g>
<g transform="translate(800.625,884.625) scale(3.605)"><rect width="6" height="6"/></g>
<g transform="translate(842.625,884.625) scale(3.605)"><rect width="6" height="6"/></g>
<g transform="translate(926.625,884.625) scale(3.605)"><rect width="6" height="6"/></g>
<g transform="translate(947.625,884.625) scale(3.605)"><rect width="6" height="6"/></g>
<g transform="translate(275.625,905.625) scale(3.605)"><rect width="6" height="6"/></g>
<g transform="translate(317.625,905.625) scale(3.605)"><rect width="6" height="6"/></g>
<g transform="translate(359.625,905.625) scale(3.605)"><rect width="6" height="6"/></g>
<g transform="translate(401.625,905.625) scale(3.605)"><rect width="6" height="6"/></g>
<g transform="translate(422.625,905.625) scale(3.605)"><rect width="6" height="6"/></g>
<g transform="translate(464.625,905.625) scale(3.605)"><rect width="6" height="6"/></g>
<g transform="translate(611.625,905.625) scale(3.605)"><rect width="6" height="6"/></g>
<g transform="translate(632.625,905.625) scale(3.605)"><rect width="6" height="6"/></g>
<g transform="translate(653.625,905.625) scale(3.605)"><rect width="6" height="6"/></g>
<g transform="translate(674.625,905.625) scale(3.605)"><rect width="6" height="6"/></g>
<g transform="translate(695.625,905.625) scale(3.605)"><rect width="6" height="6"/></g>
<g transform="translate(716.625,905.625) scale(3.605)"><rect width="6" height="6"/></g>
<g transform="translate(737.625,905.625) scale(3.605)"><rect width="6" height="6"/></g>
<g transform="translate(800.625,905.625) scale(3.605)"><rect width="6" height="6"/></g>
<g transform="translate(821.625,905.625) scale(3.605)"><rect width="6" height="6"/></g>
<g transform="translate(842.625,905.625) scale(3.605)"><rect width="6" height="6"/></g>
<g transform="translate(863.625,905.625) scale(3.605)"><rect width="6" height="6"/></g>
<g transform="translate(296.625,926.625) scale(3.605)"><rect width="6" height="6"/></g>
<g transform="translate(338.625,926.625) scale(3.605)"><rect width="6" height="6"/></g>
<g transform="translate(359.625,926.625) scale(3.605)"><rect width="6" height="6"/></g>
<g transform="translate(443.625,926.625) scale(3.605)"><rect width="6" height="6"/></g>
<g transform="translate(485.625,926.625) scale(3.605)"><rect width="6" height="6"/></g>
<g transform="translate(527.625,926.625) scale(3.605)"><rect width="6" height="6"/></g>
<g transform="translate(548.625,926.625) scale(3.605)"><rect width="6" height="6"/></g>
<g transform="translate(569.625,926.625) scale(3.605)"><rect width="6" height="6"/></g>
<g transform="translate(590.625,926.625) scale(3.605)"><rect width="6" height="6"/></g>
<g transform="translate(653.625,926.625) scale(3.605)"><rect width="6" height="6"/></g>
<g transform="translate(674.625,926.625) scale(3.605)"><rect width="6" height="6"/></g>
<g transform="translate(779.625,926.625) scale(3.605)"><rect width="6" height="6"/></g>
<g transform="translate(863.625,926.625) scale(3.605)"><rect width="6" height="6"/></g>
<g transform="translate(884.625,926.625) scale(3.605)"><rect width="6" height="6"/></g>
<g transform="translate(926.625,926.625) scale(3.605)"><rect width="6" height="6"/></g>
<g transform="translate(275.625,947.625) scale(3.605)"><rect width="6" height="6"/></g>
<g transform="translate(380.625,947.625) scale(3.605)"><rect width="6" height="6"/></g>
<g transform="translate(401.625,947.625) scale(3.605)"><rect width="6" height="6"/></g>
<g transform="translate(485.625,947.625) scale(3.605)"><rect width="6" height="6"/></g>
<g transform="translate(506.625,947.625) scale(3.605)"><rect width="6" height="6"/></g>
<g transform="translate(569.625,947.625) scale(3.605)"><rect width="6" height="6"/></g>
<g transform="translate(611.625,947.625) scale(3.605)"><rect width="6" height="6"/></g>
<g transform="translate(632.625,947.625) scale(3.605)"><rect width="6" height="6"/></g>
<g transform="translate(653.625,947.625) scale(3.605)"><rect width="6" height="6"/></g>
<g transform="translate(695.625,947.625) scale(3.605)"><rect width="6" height="6"/></g>
<g transform="translate(716.625,947.625) scale(3.605)"><rect width="6" height="6"/></g>
<g transform="translate(842.625,947.625) scale(3.605)"><rect width="6" height="6"/></g>
<g transform="translate(863.625,947.625) scale(3.605)"><rect width="6" height="6"/></g>
<g transform="translate(884.625,947.625) scale(3.605)"><rect width="6" height="6"/></g>
<g transform="translate(107.625,107.625)"><g transform="scale(10.5)"><path d="M0,0v14h14V0H0z M12,12H2V2h10V12z"/></g></g>
<g transform="translate(821.625,107.625)"><g transform="scale(10.5)"><path d="M0,0v14h14V0H0z M12,12H2V2h10V12z"/></g></g>
<g transform="translate(107.625,821.625)"><g transform="scale(10.5)"><path d="M0,0v14h14V0H0z M12,12H2V2h10V12z"/></g></g>
<g transform="translate(149.625,149.625)"><g transform="scale(10.5)"><rect width="6" height="6"/></g></g>
<g transform="translate(863.625,149.625)"><g transform="scale(10.5)"><rect width="6" height="6"/></g></g>
<g transform="translate(149.625,863.625)"><g transform="scale(10.5)"><rect width="6" height="6"/></g></g>
</g><g transform="translate(230.60934955212,1016.4583333333) scale(1.4957654723127)"><path fill="#FFFFFF" d="M4.4921875,96.923828125l8.935546875-0.78125q0.634765625,5.37109375,2.9541015625,8.8134765625t7.2021484375,5.56640625t10.986328125,2.1240234375q5.419921875,0,9.5703125-1.611328125t6.1767578125-4.4189453125t2.0263671875-6.1279296875q0-3.369140625-1.953125-5.8837890625t-6.4453125-4.2236328125q-2.880859375-1.123046875-12.744140625-3.4912109375t-13.818359375-4.4677734375q-5.126953125-2.685546875-7.6416015625-6.6650390625t-2.5146484375-8.9111328125q0-5.419921875,3.076171875-10.1318359375t8.984375-7.1533203125t13.134765625-2.44140625q7.958984375,0,14.0380859375,2.5634765625t9.3505859375,7.5439453125t3.515625,11.279296875l-9.08203125,0.68359375q-0.732421875-6.787109375-4.9560546875-10.25390625t-12.4755859375-3.466796875q-8.59375,0-12.5244140625,3.1494140625t-3.9306640625,7.5927734375q0,3.857421875,2.783203125,6.34765625q2.734375,2.490234375,14.2822265625,5.1025390625t15.8447265625,4.5654296875q6.25,2.880859375,9.228515625,7.2998046875t2.978515625,10.1806640625q0,5.712890625-3.271484375,10.7666015625t-9.3994140625,7.861328125t-13.7939453125,2.8076171875q-9.716796875,0-16.2841796875-2.83203125t-10.302734375-8.5205078125t-3.9306640625-12.8662109375z M76.025390625,119.921875l0-71.58203125l9.47265625,0l0,71.58203125l-9.47265625,0z M135.693359375,91.845703125l0-8.3984375l30.322265625-0.048828125l0,26.5625q-6.982421875,5.56640625-14.404296875,8.3740234375t-15.234375,2.8076171875q-10.546875,0-19.1650390625-4.5166015625t-13.0126953125-13.0615234375t-4.39453125-19.091796875q0-10.44921875,4.3701171875-19.5068359375t12.5732421875-13.4521484375t18.896484375-4.39453125q7.763671875,0,14.0380859375,2.5146484375t9.8388671875,7.0068359375t5.419921875,11.71875l-8.544921875,2.34375q-1.611328125-5.46875-4.00390625-8.59375t-6.8359375-5.0048828125t-9.86328125-1.8798828125q-6.494140625,0-11.23046875,1.9775390625t-7.6416015625,5.2001953125t-4.5166015625,7.080078125q-2.734375,6.640625-2.734375,14.404296875q0,9.5703125,3.2958984375,16.015625t9.5947265625,9.5703125t13.37890625,3.125q6.15234375,0,12.01171875-2.3681640625t8.88671875-5.0537109375l0-13.330078125l-21.044921875,0z M179.8828125,119.921875l0-71.58203125l9.716796875,0l37.59765625,56.201171875l0-56.201171875l9.08203125,0l0,71.58203125l-9.716796875,0l-37.59765625-56.25l0,56.25l-9.08203125,0z  M326.953125,48.33984375l9.47265625,0l0,41.357421875q0,10.791015625-2.44140625,17.138671875t-8.8134765625,10.3271484375t-16.7236328125,3.9794921875q-10.05859375,0-16.455078125-3.466796875t-9.130859375-10.0341796875t-2.734375-17.9443359375l0-41.357421875l9.47265625,0l0,41.30859375q0,9.326171875,1.7333984375,13.7451171875t5.95703125,6.8115234375t10.3271484375,2.392578125q10.44921875,0,14.892578125-4.736328125t4.443359375-18.212890625l0-41.30859375z M352.197265625,119.921875l0-71.58203125l27.001953125,0q7.12890625,0,10.888671875,0.68359375q5.2734375,0.87890625,8.837890625,3.3447265625t5.7373046875,6.9091796875t2.1728515625,9.765625q0,9.130859375-5.810546875,15.4541015625t-20.99609375,6.3232421875l-18.359375,0l0,29.1015625l-9.47265625,0z M361.669921875,82.373046875l18.505859375,0q9.1796875,0,13.037109375-3.41796875t3.857421875-9.619140625q0-4.4921875-2.2705078125-7.6904296875t-5.9814453125-4.2236328125q-2.392578125-0.634765625-8.837890625-0.634765625l-18.310546875,0l0,25.5859375z"/></g></svg>
