<?xml version="1.0" standalone="no"?>
<!DOCTYPE svg PUBLIC "-//W3C//DTD SVG 20010904//EN"
 "http://www.w3.org/TR/2001/REC-SVG-20010904/DTD/svg10.dtd">
<svg version="1.0" xmlns="http://www.w3.org/2000/svg"
 width="494.000000pt" height="494.000000pt" viewBox="0 0 494.000000 494.000000"
 preserveAspectRatio="xMidYMid meet">
<metadata>
Created by potrace 1.11, written by Peter Selinger 2001-2013
</metadata>
<g transform="translate(0.000000,494.000000) scale(0.100000,-0.100000)"
fill="#000000" stroke="none">
<path d="M20 2900 l0 -1660 1390 0 1390 0 0 1660 0 1660 -1390 0 -1390 0 0
-1660z m1792 1322 c273 -66 462 -201 558 -397 52 -104 70 -176 76 -305 7 -127
-10 -220 -58 -318 -45 -92 -157 -204 -267 -268 l-83 -48 34 -12 c71 -24 163
-78 211 -122 133 -124 187 -289 187 -570 0 -108 3 -132 21 -170 23 -47 78 -81
131 -82 59 0 58 2 58 -171 l0 -159 -182 0 c-256 0 -359 29 -443 122 -88 96
-115 198 -125 463 -6 174 -10 208 -30 260 -31 81 -113 163 -195 196 -57 22
-73 24 -327 27 l-268 3 0 -349 0 -348 123 -23 c67 -12 130 -24 140 -27 15 -5
17 -22 17 -165 l0 -159 -550 0 -550 0 0 159 c0 144 2 160 18 164 9 3 72 15
140 28 l122 23 0 951 0 951 -122 23 c-68 13 -131 25 -140 28 -16 4 -18 20 -18
164 l0 160 718 -4 c690 -3 720 -4 804 -25z"/>
<path d="M1110 3461 l0 -381 178 0 c335 1 437 23 533 119 72 73 93 131 92 256
-1 181 -80 298 -241 358 -51 19 -83 22 -309 25 l-253 4 0 -381z"/>
<path d="M3738 4279 c-399 -46 -714 -277 -784 -577 -24 -103 -15 -284 19 -382
89 -252 318 -410 842 -582 362 -119 477 -184 534 -302 52 -107 36 -254 -38
-337 -81 -92 -191 -130 -381 -130 -176 0 -304 27 -430 91 -93 48 -87 36 -117
243 l-28 187 -207 0 -208 0 0 -273 0 -274 58 -55 c247 -235 686 -363 1097
-319 287 31 476 110 632 266 89 89 137 172 168 290 20 78 21 263 1 349 -46
197 -172 351 -387 474 -130 74 -228 115 -438 182 -319 102 -462 169 -536 251
-49 54 -65 96 -65 167 0 190 145 309 397 328 151 11 358 -23 487 -80 l53 -24
32 -168 c18 -93 34 -177 37 -187 5 -16 21 -17 202 -15 l197 3 3 272 2 273 -87
65 c-279 206 -680 307 -1055 264z"/>
<path d="M20 720 l0 -340 760 0 760 0 0 340 0 340 -760 0 -760 0 0 -340z"/>
<path d="M3390 720 l0 -340 760 0 760 0 0 340 0 340 -760 0 -760 0 0 -340z"/>
</g>
</svg>
